<?xml version="1.0" encoding="utf-8"?>
<!-- Generator: Adobe Illustrator 16.0.0, SVG Export Plug-In . SVG Version: 6.00 Build 0)  -->
<!DOCTYPE svg PUBLIC "-//W3C//DTD SVG 1.1//EN" "http://www.w3.org/Graphics/SVG/1.1/DTD/svg11.dtd">
<svg version="1.1" id="Layer_1" xmlns="http://www.w3.org/2000/svg" xmlns:xlink="http://www.w3.org/1999/xlink" x="0px" y="0px"
	 width="300px" height="400px" viewBox="0 0 300 400" enable-background="new 0 0 300 400" xml:space="preserve">
<path fill-rule="evenodd" clip-rule="evenodd" d="M101.052,234.303c20.941-2.849,40.809-5.278,60.585-8.31
	c25.254-3.867,42.714-25.393,41.076-51.169c-0.268-4.174-3.813-8.918-7.146-11.981c-16.728-15.386-22.251-37.62-13.632-57.544
	c8.69-20.098,30.176-32.626,52.184-30.426c20.877,2.083,39.169,18.766,43.143,40.408c3.385,18.44-3.009,33.722-16.193,46.941
	c-3.909,3.922-7.102,10.068-7.728,15.527c-5.993,52.251-33.155,94.441-91.926,97.945c-17.124,1.021-34.975,0.749-47.73,17.22
	c9.903,14.426,15.936,29.99,10.559,48.173c-5.998,20.283-23.591,34.783-45.284,36.474c-20.355,1.583-41.25-11.521-49.309-30.924
	c-7.925-19.083-3.385-42.078,12.746-55.358c7.205-5.932,8.815-11.999,8.76-20.514c-0.308-46.844-0.281-93.693-0.02-140.537
	c0.045-8.067-1.737-13.681-8.412-19.407c-21.662-18.578-22.461-50.581-2.888-71.034c19.906-20.803,52.424-20.82,72.351-0.042
	c19.596,20.435,18.829,52.437-2.806,71.042c-6.646,5.714-8.547,11.293-8.463,19.388c0.329,31.225,0.134,62.458,0.134,93.691
	C101.052,227.956,101.052,232.049,101.052,234.303z M101.514,74.526c0.064-13.213-11.499-25.175-24.742-25.598
	C63.045,48.49,50.61,60.521,50.544,74.304c-0.063,13.211,11.5,25.175,24.744,25.596C89.011,100.337,101.45,88.304,101.514,74.526z
	 M253.546,124.676c-0.235-13.288-11.984-24.945-25.268-25.069c-13.743-0.131-25.947,12.167-25.702,25.9
	c0.235,13.288,11.984,24.945,25.267,25.069C241.586,150.708,253.79,138.41,253.546,124.676z M101.514,327.711
	c-0.049-13.268-11.66-25.088-24.941-25.397c-13.728-0.319-26.081,11.817-26.029,25.576c0.051,13.268,11.66,25.086,24.943,25.396
	C89.211,353.606,101.569,341.464,101.514,327.711z"/>
<path fill-rule="evenodd" clip-rule="evenodd" fill="#FFFFFF" d="M101.514,74.526c-0.064,13.778-12.503,25.811-26.227,25.373
	c-13.244-0.42-24.807-12.384-24.744-25.596C50.61,60.521,63.045,48.49,76.772,48.928C90.016,49.351,101.579,61.313,101.514,74.526z"
	/>
<path fill-rule="evenodd" clip-rule="evenodd" fill="#FFFFFF" d="M253.546,124.676c0.244,13.733-11.96,26.032-25.703,25.9
	c-13.282-0.124-25.031-11.781-25.267-25.069c-0.245-13.733,11.959-26.031,25.702-25.9
	C241.562,99.731,253.311,111.389,253.546,124.676z"/>
<path fill-rule="evenodd" clip-rule="evenodd" fill="#FFFFFF" d="M101.514,327.711c0.055,13.753-12.303,25.896-26.027,25.574
	c-13.283-0.31-24.892-12.128-24.943-25.396c-0.052-13.759,12.301-25.896,26.029-25.576
	C89.854,302.623,101.465,314.443,101.514,327.711z"/>
</svg>
